# xmcd CD Database Entry
#
# Track frame offsets:
# 150
# 11736
# 31430
# 47432
# 63346
# 77849
# 91297
# 105977
# 118700
# 131446
# 145136
# 157417
# 171061
# 185747
# 199966
# 212214
# 226514
# 237634
# 249400
# 259994
# 271989
# 284166
# 294317
# 307426
# 321015
#
# Disc length: 4486 seconds
#
# Revision: 2
# Processed by: cddbd v1.5PL3 Copyright (c) Steve Scherf et al.
# Submitted via: tcd 2.0b
#
DISCID=7b118419
DTITLE=Hoagy Carmichael - Sometimes I wonder....
DYEAR=1900
DGENRE=
TTITLE0=Stardust
TTITLE1=Washboard blues
TTITLE2=Rampart street blues
TTITLE3=Rockin' chair
TTITLE4=georgia on my mind
TTITLE5=Bessie couldn't help it
TTITLE6=Lazy river
TTITLE7=Sing it way down low
TTITLE8=Snowball
TTITLE9=Lazybones
TTITLE10=One morning in May
TTITLE11=Judy
TTITLE12=Moon country
TTITLE13=wo sleepy people
TTITLE14=Riverboat shuffle
TTITLE15=New Orleans
TTITLE16=Mr. Music Master
TTITLE17=Don't forget to say "No", baby
TTITLE18=Hong Kong blues
TTITLE19=Huggin' and Chalkin'
TTITLE20=I may be wrong
TTITLE21=Ole buttermilk sky
TTITLE22=A tune for humming
TTITLE23=Memphis is June
TTITLE24=Rockin' chair (with Louis Armstrong)
EXTD=
EXTT0=
EXTT1=
EXTT2=
EXTT3=
EXTT4=
EXTT5=
EXTT6=
EXTT7=
EXTT8=
EXTT9=
EXTT10=
EXTT11=
EXTT12=
EXTT13=
EXTT14=
EXTT15=
EXTT16=
EXTT17=
EXTT18=
EXTT19=
EXTT20=
EXTT21=
EXTT22=
EXTT23=
EXTT24=
PLAYORDER=
